<svg width="28" height="28" viewBox="0 0 28 28" fill="none" xmlns="http://www.w3.org/2000/svg">
<path d="M18.9121 5.25931L18.9141 5.26157C19.1658 5.54128 19.412 5.78951 19.7451 5.94833C20.0819 6.10889 20.454 6.15392 20.9156 6.15392H23.0651C24.1344 6.15392 24.8511 6.41855 25.3027 6.86154C25.7526 7.30281 26.0229 8.00317 26.0229 9.05665V21.5863C26.0229 22.6398 25.7526 23.3435 25.3019 23.7877C24.8499 24.2332 24.1332 24.5 23.0651 24.5H4.93494C3.86067 24.5 3.14458 24.233 2.6944 23.7882C2.24532 23.3444 1.97714 22.641 1.97714 21.5863V9.05665C1.97714 8.00194 2.24529 7.30188 2.69354 6.86112C3.14334 6.41884 3.85947 6.15392 4.93494 6.15392H7.00732C7.46791 6.15392 7.83846 6.10501 8.17476 5.94367C8.50583 5.78483 8.75339 5.53969 9.00537 5.26531L9.00542 5.26535L9.01081 5.25929L9.88988 4.27034C10.1372 3.99858 10.3613 3.81695 10.628 3.69668C10.8967 3.57551 11.2459 3.5 11.7646 3.5H16.1583C16.677 3.5 17.0262 3.57551 17.2949 3.69669C17.5616 3.81695 17.7857 3.99856 18.0329 4.27029L18.9121 5.25931ZM10.0146 5.32138L10.0138 5.32226L9.1561 6.28997C9.15592 6.29018 9.15573 6.29039 9.15554 6.2906C8.92122 6.5529 8.71277 6.69925 8.47677 6.7885C8.23053 6.88161 7.9169 6.92686 7.44779 6.92686H4.95697C4.33059 6.92686 3.76015 7.09733 3.34697 7.50661C2.93285 7.91682 2.75009 8.49416 2.75009 9.15575V21.4982C2.75009 22.1598 2.93285 22.7372 3.34697 23.1474C3.76015 23.5567 4.33058 23.7271 4.95697 23.7271H23.032C23.6626 23.7271 24.2358 23.5574 24.6508 23.1482C25.0671 22.7377 25.2499 22.1598 25.2499 21.4982V9.15575C25.2499 8.49416 25.0671 7.91623 24.6508 7.50579C24.2358 7.09663 23.6626 6.92686 23.032 6.92686H20.4751C20.006 6.92686 19.6924 6.88161 19.4462 6.7885C19.2101 6.69923 19.0016 6.55283 18.7672 6.29039C18.7671 6.29025 18.7669 6.29011 18.7668 6.28997L17.9091 5.32227L17.9083 5.32136C17.5864 4.95993 17.2907 4.67395 16.9114 4.49633C16.5286 4.3171 16.115 4.27295 15.6078 4.27295H12.3151C11.8079 4.27295 11.3942 4.3171 11.0115 4.49634C10.6322 4.67396 10.3365 4.95995 10.0146 5.32138ZM19.5016 14.9764C19.5016 18.0595 17.0489 20.5 14 20.5C10.9395 20.5 8.48739 18.0589 8.48739 14.9764C8.48739 11.9055 10.9389 9.46382 14 9.46382C17.0599 9.46382 19.5016 11.9043 19.5016 14.9764ZM9.15022 14.9764C9.15022 17.6777 11.3367 19.8262 14 19.8262C16.6768 19.8262 18.8387 17.6752 18.8387 14.9764C18.8387 12.2895 16.6776 10.1266 14 10.1266C11.3241 10.1266 9.15022 12.2878 9.15022 14.9764Z" fill="white" fill-opacity="0.85" stroke="white"/>
</svg>
